<?xml version="1.0" encoding="UTF-8"?>
<svg width="384px" height="512px" viewBox="0 0 384 512" version="1.1" xmlns="http://www.w3.org/2000/svg" xmlns:xlink="http://www.w3.org/1999/xlink">
    <!-- Generator: Sketch 54.1 (76490) - https://sketchapp.com -->
    <title>download</title>
    <desc>Created with Sketch.</desc>
    <g id="Page-1" stroke="none" stroke-width="1" fill="none" fill-rule="evenodd">
        <g id="download" fill="#B3B3B3" fill-rule="nonzero">
            <path d="M112.46875,95.332031 L112.46875,0 L111.398438,0 C107.421875,0 103.605469,1.582031 100.792969,4.394531 L4.394531,100.792969 C1.582031,103.605469 0,107.421875 0,111.398438 L0,112.46875 L95.335938,112.46875 C104.78125,112.46875 112.46875,104.78125 112.46875,95.332031 Z" id="Path"></path>
            <path d="M336.335938,0 L142.46875,0 L142.46875,95.332031 C142.46875,121.320312 121.324219,142.464844 95.335938,142.464844 L0,142.464844 L0,464.867188 C0,490.855469 21.144531,512 47.132812,512 L336.335938,512 C362.25,512 383.46875,491.046875 383.46875,464.867188 L383.46875,47.132812 C383.46875,21.21875 362.515625,0 336.335938,0 Z M116.859375,261.460938 C122.71875,255.601562 132.214844,255.601562 138.074219,261.460938 L176.734375,300.121094 L176.734375,191.734375 C176.734375,183.449219 183.449219,176.734375 191.734375,176.734375 C200.019531,176.734375 206.734375,183.449219 206.734375,191.734375 L206.734375,300.121094 L245.394531,261.460938 C251.25,255.601562 260.75,255.601562 266.605469,261.460938 C272.464844,267.316406 272.464844,276.816406 266.605469,282.671875 L202.339844,346.941406 C196.480469,352.800781 186.984375,352.796875 181.128906,346.941406 L116.859375,282.671875 C111.003906,276.816406 111.003906,267.316406 116.859375,261.460938 L116.859375,261.460938 Z M256,415.601562 L127.46875,415.601562 C119.183594,415.601562 112.46875,408.882812 112.46875,400.601562 C112.46875,392.316406 119.183594,385.601562 127.46875,385.601562 L256,385.601562 C264.285156,385.601562 271,392.316406 271,400.601562 C271,408.882812 264.285156,415.601562 256,415.601562 Z" id="Shape"></path>
        </g>
    </g>
</svg>