<?xml version="1.0" encoding="UTF-8"?>
<svg width="139px" height="197px" viewBox="0 0 139 197" version="1.1" xmlns="http://www.w3.org/2000/svg" xmlns:xlink="http://www.w3.org/1999/xlink">
    <!-- Generator: Sketch 54.1 (76490) - https://sketchapp.com -->
    <title>dust-bin</title>
    <desc>Created with Sketch.</desc>
    <g id="Page-1" stroke="none" stroke-width="1" fill="none" fill-rule="evenodd">
        <g id="dust-bin" fill="#B2B2B2" fill-rule="nonzero">
            <path d="M128.024,196.766 L128.024,59.466 L10.741,59.466 L10.741,196.766 L128.024,196.766 Z M86.448,76.908 L99.981,76.908 L99.981,174.342 L86.448,174.342 L86.448,76.908 Z M38.784,76.908 L52.316,76.908 L52.316,174.342 L38.784,174.342 L38.784,76.908 Z M35.1,0 L35.1,12.63 L0.217,12.63 L0.217,45.376 L138.549,45.376 L138.549,12.63 L103.664,12.63 L103.664,0 L35.1,0 Z M90.131,21.201 L48.633,21.201 L48.633,13.532 L90.132,13.532 L90.132,21.201 L90.131,21.201 Z" id="Shape"></path>
        </g>
    </g>
</svg>